<svg width="12" height="535" viewBox="0 0 12 535" fill="none" xmlns="http://www.w3.org/2000/svg">
<path d="M6 0.666667C3.05448 0.666667 0.666666 3.05448 0.666667 6C0.666667 8.94552 3.05448 11.3333 6 11.3333C8.94552 11.3333 11.3333 8.94552 11.3333 6C11.3333 3.05448 8.94552 0.666666 6 0.666667ZM6.00002 523.667C3.0545 523.667 0.666689 526.055 0.666689 529C0.666689 531.945 3.0545 534.333 6.00002 534.333C8.94554 534.333 11.3334 531.945 11.3334 529C11.3334 526.055 8.94554 523.667 6.00002 523.667ZM5 6L5.00002 529L7.00002 529L7 6L5 6Z" fill="#BCBCBC"/>
</svg>
