<svg width="80" height="80" viewBox="0 0 80 80" fill="none" xmlns="http://www.w3.org/2000/svg">
<g clip-path="url(#clip0_147_1259)">
<mask id="mask0_147_1259" style="mask-type:luminance" maskUnits="userSpaceOnUse" x="0" y="0" width="80" height="80">
<path d="M40 0C17.9102 0 0 17.9102 0 40C0 62.0898 17.9102 80 40 80C62.0898 80 80 62.0898 80 40C80 17.9102 62.0898 0 40 0Z" fill="white"/>
</mask>
<g mask="url(#mask0_147_1259)">
<path d="M88 -8H-8V88H88V-8Z" fill="white"/>
<path d="M40 0C17.9102 0 0 17.9102 0 40C0 62.0898 17.9102 80 40 80C62.0898 80 80 62.0898 80 40C80 17.9102 62.0898 0 40 0Z" stroke="#9F57C0" stroke-width="4"/>
</g>
<mask id="mask1_147_1259" style="mask-type:luminance" maskUnits="userSpaceOnUse" x="12" y="33" width="13" height="20">
<path d="M12.4478 33.3334H24.1665V52.5H12.4478V33.3334Z" fill="white"/>
</mask>
<g mask="url(#mask1_147_1259)">
<path d="M14.0851 34.0267C13.0597 35.4395 12.4478 37.168 12.4478 39.0463V48.545C12.4478 50.6446 14.1502 52.3438 16.2466 52.3438H23.6034L14.0851 34.0267Z" fill="#9F57C0"/>
</g>
<path d="M37.1453 49.4955C37.1453 48.7403 36.8491 48.0209 36.3055 47.474C35.7684 46.9434 35.0522 46.6439 34.297 46.6439H32.5229L35.3745 52.1289C36.4097 51.7025 37.1453 50.6869 37.1453 49.4955Z" fill="#9F57C0"/>
<mask id="mask2_147_1259" style="mask-type:luminance" maskUnits="userSpaceOnUse" x="20" y="12" width="19" height="18">
<path d="M20.8335 12.4479H38.3335V30H20.8335V12.4479Z" fill="white"/>
</mask>
<g mask="url(#mask2_147_1259)">
<path d="M29.5443 29.5442C34.2643 29.5442 38.0957 25.7161 38.0957 20.9961C38.0957 16.276 34.2643 12.4479 29.5443 12.4479C24.8242 12.4479 20.9961 16.276 20.9961 20.9961C20.9961 25.7161 24.8242 29.5442 29.5443 29.5442Z" fill="#9F57C0"/>
</g>
<path d="M33.3462 52.3437L21.9823 30.4948H20.9959C18.88 30.4948 16.9465 31.2662 15.4556 32.5455L25.7453 52.3437H33.3462Z" fill="#9F57C0"/>
<mask id="mask3_147_1259" style="mask-type:luminance" maskUnits="userSpaceOnUse" x="18" y="30" width="27" height="38">
<path d="M18.3335 30H45.0002V67.4479H18.3335V30Z" fill="white"/>
</mask>
<g mask="url(#mask3_147_1259)">
<path d="M42.6401 34.3619C43.4344 34.2773 44.2222 34.1536 44.9969 34.0169C43.4442 31.888 40.9344 30.4948 38.0959 30.4948H36.1167C34.2091 31.7024 31.9565 32.3958 29.5444 32.3958C27.7769 32.3958 26.0907 32.0182 24.5672 31.3411L31.5334 44.7461H34.297C35.5535 44.7461 36.745 45.2376 37.6499 46.1295C38.5516 47.0442 39.0464 48.2356 39.0464 49.4954C39.0464 52.1158 36.9142 54.2448 34.297 54.2448H19.0952V67.5455H28.5972V59.9446H30.495V67.5455H39.9969V54.2448H42.2365C41.4032 52.0149 40.9442 49.6354 40.9442 47.1777V34.5442L42.6401 34.3619Z" fill="#9F57C0"/>
</g>
<mask id="mask4_147_1259" style="mask-type:luminance" maskUnits="userSpaceOnUse" x="42" y="32" width="26" height="33">
<path d="M42.5 32.5H67.4479V65H42.5V32.5Z" fill="white"/>
</mask>
<g mask="url(#mask4_147_1259)">
<path d="M53.0177 54.1309C52.8322 54.3164 52.5913 54.4076 52.3439 54.4076C52.0998 54.4076 51.8589 54.3164 51.6733 54.1309L46.924 49.3783L48.2651 48.0371L52.3439 52.1159L62.1226 42.3372L63.467 43.6816L53.0177 54.1309ZM55.1955 32.5586C51.3641 34.541 47.1714 35.7878 42.8452 36.25V47.1777C42.8452 54.8926 47.7541 61.8457 55.1955 64.8568C62.6336 61.8457 67.5457 54.8926 67.5457 47.1777V36.25C63.2163 35.7878 59.0236 34.541 55.1955 32.5586Z" fill="#9F57C0"/>
</g>
</g>
<defs>
<clipPath id="clip0_147_1259">
<rect width="80" height="80" fill="white"/>
</clipPath>
</defs>
</svg>
