<svg width="80" height="80" viewBox="0 0 80 80" fill="none" xmlns="http://www.w3.org/2000/svg">
<g clip-path="url(#clip0_146_1164)">
<path d="M88 -8H-8V88H88V-8Z" fill="white"/>
<path d="M88 -8H-8V88H88V-8Z" fill="white"/>
<mask id="mask0_146_1164" style="mask-type:luminance" maskUnits="userSpaceOnUse" x="0" y="0" width="80" height="80">
<path d="M40 0C17.9102 0 0 17.9102 0 40C0 62.0898 17.9102 80 40 80C62.0898 80 80 62.0898 80 40C80 17.9102 62.0898 0 40 0Z" fill="white"/>
</mask>
<g mask="url(#mask0_146_1164)">
<path d="M88 -8H-8V88H88V-8Z" fill="white"/>
<path d="M40 0C17.9102 0 0 17.9102 0 40C0 62.0898 17.9102 80 40 80C62.0898 80 80 62.0898 80 40C80 17.9102 62.0898 0 40 0Z" stroke="#9F57C0" stroke-width="4"/>
</g>
<mask id="mask1_146_1164" style="mask-type:luminance" maskUnits="userSpaceOnUse" x="28" y="8" width="24" height="27">
<path d="M28.3335 8.00134H51.6668V34.1667H28.3335V8.00134Z" fill="white"/>
</mask>
<g mask="url(#mask1_146_1164)">
<path d="M39.9902 33.6394C46.1589 33.6394 51.1556 24.9187 51.1556 18.7533C51.1556 12.5879 46.1589 8.00134 39.9902 8.00134C33.8281 8.00134 28.8281 12.5879 28.8281 18.7533C28.8281 24.9187 33.8281 33.6394 39.9902 33.6394Z" fill="#9F57C0"/>
</g>
<path d="M45.4688 54.5085L42.4089 56.2793C41.7904 56.6276 40.7096 56.9238 40.0033 56.9141H39.987C39.2708 56.9238 38.1901 56.6276 37.5781 56.2793L34.5182 54.5085C33.5938 53.9746 33.5319 52.679 34.3913 52.0345C35.9473 50.8594 37.8874 50.1595 39.9935 50.1595C42.0898 50.1595 44.0299 50.8594 45.5957 52.0345C46.4486 52.679 46.39 53.9746 45.4688 54.5085ZM49.1243 57.9232C49.5703 57.8288 50.0326 57.7832 50.498 57.7832H52.3926C51.5495 51.6927 46.3118 46.9824 39.9935 46.9824C33.6686 46.9824 28.4375 51.6927 27.5977 57.7832H29.4857C29.9577 57.7832 30.4167 57.8288 30.8529 57.9232C31.1979 57.1615 32.1484 56.8132 32.9264 57.2559L34.3587 58.0827C35.9082 58.9811 37.0378 60.0716 38.0859 61.2402C38.5547 61.7546 39.2318 62.0801 39.9935 62.0801C40.7487 62.0801 41.4323 61.7546 41.901 61.2402C42.9492 60.0716 44.0788 58.9811 45.4297 58.1934L47.0508 57.2656C47.8288 56.8132 48.776 57.1712 49.1243 57.9232Z" fill="#9F57C0"/>
<mask id="mask2_146_1164" style="mask-type:luminance" maskUnits="userSpaceOnUse" x="33" y="67" width="15" height="5">
<path d="M33.0469 67.5H47.1061V71.7513H33.0469V67.5Z" fill="white"/>
</mask>
<g mask="url(#mask2_146_1164)">
<path d="M44.5703 67.6367C42.8223 68.6198 40.7324 69.0592 38.5319 68.724C37.4186 68.5579 36.3607 68.1771 35.4069 67.6367C34.8991 68.6068 34.1536 69.4336 33.252 70.0456C35.2018 71.2923 37.513 72.015 39.9935 72.015C42.474 72.015 44.7852 71.2923 46.7318 70.0456C45.8268 69.4336 45.0879 68.6068 44.5703 67.6367Z" fill="#9F57C0"/>
</g>
<mask id="mask3_146_1164" style="mask-type:luminance" maskUnits="userSpaceOnUse" x="18" y="34" width="35" height="35">
<path d="M18.9194 34.1666H52.5002V68.3333H18.9194V34.1666Z" fill="white"/>
</mask>
<g mask="url(#mask3_146_1164)">
<path d="M29.3133 61.3574H24.0106C23.9487 60.7454 23.8999 60.127 23.8999 59.4987C23.8999 58.1868 24.0594 56.9141 24.3621 55.6999C26.0679 48.6491 32.4285 43.4049 39.9937 43.4049C42.0021 43.4049 43.9292 43.7695 45.7 44.4531L52.2658 35.9115C51.159 35.4492 49.9741 35.1465 48.7534 35.0228C48.6004 35.0065 48.4409 34.9967 48.2912 34.9805C45.9539 36.9987 43.1479 38.3008 39.9937 38.3008C36.8296 38.3008 34.0334 36.9987 31.6896 34.9805C31.5366 34.9967 31.3869 35.0065 31.2371 35.0228C25.9442 35.5697 21.5236 39.3913 20.2931 44.5573C19.4338 48.1478 18.9878 51.8685 18.9878 55.6999V63.6556C18.9878 65.8496 20.7684 67.627 22.9624 67.627H29.4858C31.2762 67.627 32.7052 66.1263 32.6108 64.3229C32.523 62.6302 31.006 61.3574 29.3133 61.3574Z" fill="#9F57C0"/>
</g>
<mask id="mask4_146_1164" style="mask-type:luminance" maskUnits="userSpaceOnUse" x="47" y="38" width="14" height="30">
<path d="M47.106 38.3334H60.7941V67.8809H47.106V38.3334Z" fill="white"/>
</mask>
<g mask="url(#mask4_146_1164)">
<path d="M59.6937 44.5574C59.1306 42.2136 57.9164 40.1401 56.253 38.532L49.8858 46.823C52.695 49.017 54.7588 52.1225 55.6247 55.7C55.9274 56.9141 56.0869 58.1869 56.0869 59.4988C56.0869 60.127 56.0446 60.7455 55.973 61.3575H50.4977C48.7106 61.3575 47.2816 62.8451 47.376 64.6583C47.4639 66.3575 48.9808 67.627 50.6833 67.627H57.0244C59.2152 67.627 60.9991 65.8497 60.9991 63.6557V55.7C60.9991 51.8686 60.5433 48.1479 59.6937 44.5574Z" fill="#9F57C0"/>
</g>
</g>
<defs>
<clipPath id="clip0_146_1164">
<rect width="80" height="80" fill="white"/>
</clipPath>
</defs>
</svg>
