<svg width="80" height="80" viewBox="0 0 80 80" fill="none" xmlns="http://www.w3.org/2000/svg">
<g clip-path="url(#clip0_211_2288)">
<mask id="mask0_211_2288" style="mask-type:luminance" maskUnits="userSpaceOnUse" x="0" y="0" width="80" height="80">
<path d="M40 0C17.9102 0 0 17.9102 0 40C0 62.0898 17.9102 80 40 80C62.0898 80 80 62.0898 80 40C80 17.9102 62.0898 0 40 0Z" fill="white"/>
</mask>
<g mask="url(#mask0_211_2288)">
<path d="M88 -8H-8V88H88V-8Z" fill="white"/>
<path d="M40 0C17.9102 0 0 17.9102 0 40C0 62.0898 17.9102 80 40 80C62.0898 80 80 62.0898 80 40C80 17.9102 62.0898 0 40 0Z" stroke="#9F57C0" stroke-width="4"/>
</g>
<mask id="mask1_211_2288" style="mask-type:luminance" maskUnits="userSpaceOnUse" x="17" y="12" width="46" height="56">
<path d="M17.6107 12.8582H62.5V67.2332H17.6107V12.8582Z" fill="white"/>
</mask>
<g mask="url(#mask1_211_2288)">
<path fill-rule="evenodd" clip-rule="evenodd" d="M29.7982 26.0677H39.2936C39.5377 26.0677 39.7233 26.2305 39.7819 26.4551C39.9446 27.0671 40.1497 27.6595 40.3939 28.2292C40.4557 28.3919 40.4557 28.5547 40.3548 28.6979C40.2506 28.8607 40.1074 28.9421 39.9251 28.9421H30.4297C29.3066 28.9421 28.9616 29.5736 28.776 30.2865L26.9238 37.3372C26.556 38.7663 27.4121 39.2122 28.125 39.2122H51.276C52.0117 39.2122 52.8678 38.7663 52.4804 37.3372L52.2558 36.4616C52.2135 36.3184 52.2363 36.1556 52.3372 36.0352C52.4381 35.9115 52.5618 35.8301 52.7246 35.8301C53.5189 35.7682 54.3131 35.6478 55.0683 35.4622C55.332 35.3809 55.5989 35.5469 55.6803 35.791L56.3737 37.972C56.6797 37.7051 57.0638 37.5423 57.4935 37.5423H60.1009C61.0384 37.5423 61.7936 38.3171 61.7936 39.2546C61.7936 40.1921 61.0384 40.9668 60.1009 40.9668H58.1445L60.3678 43.6784C61.569 45.1432 61.5299 47.041 61.5299 48.9356V55.1921C61.5299 57.6986 60.4297 58.5742 57.9199 58.5742H21.5006C18.9746 58.5742 17.8939 57.6986 17.8939 55.1921V48.9356C17.8939 47.041 17.832 45.1432 19.0364 43.6784L21.2793 40.9668H19.3196C18.3821 40.9668 17.6107 40.1921 17.6107 39.2546C17.6107 38.3171 18.3821 37.5423 19.3196 37.5423H21.9108C22.3372 37.5423 22.7441 37.7051 23.0501 37.972L25.5989 29.86C26.3509 27.4544 27.2884 26.0677 29.7982 26.0677ZM51.9498 12.8613C57.6985 12.8613 62.386 17.5293 62.386 23.2975C62.386 29.0658 57.6985 33.7305 51.9498 33.7305C46.1816 33.7305 41.5137 29.0658 41.5137 23.2975C41.5137 17.5293 46.1816 12.8613 51.9498 12.8613ZM47.9752 20.7096C47.9752 18.9355 49.1374 17.6107 50.7877 17.1224V15.778C50.7877 15.4915 51.0123 15.2474 51.2988 15.2474H52.6009C52.8873 15.2474 53.112 15.4915 53.112 15.778L53.0924 17.0605C53.4179 17.1419 53.7011 17.2428 53.9876 17.4056C55.026 17.9785 55.638 18.9746 55.8431 20.1367C55.8626 20.2799 55.8235 20.4427 55.7194 20.5469C55.6185 20.6673 55.4948 20.7292 55.332 20.7292H54.1504C53.9062 20.7292 53.7239 20.5859 53.6621 20.3613C53.1933 18.8542 50.3808 18.6914 50.3808 20.5664C50.3808 21.5658 51.6862 21.9531 52.4609 22.2363C54.2936 22.8906 55.9245 23.6035 55.9245 25.8659C55.9245 27.6367 54.7623 28.9844 53.0924 29.4727L53.112 30.8171C53.112 31.1035 52.8873 31.3281 52.6009 31.3281H51.2988C51.0123 31.3281 50.7877 31.1035 50.7877 30.8171V29.5345C50.4818 29.4531 50.1758 29.349 49.8926 29.1862C48.8509 28.6165 48.2422 27.5977 48.0566 26.4551C48.0176 26.2923 48.0566 26.1491 48.1608 26.0286C48.2617 25.9245 48.4049 25.8659 48.5449 25.8659H49.7493C49.9739 25.8659 50.1758 26.0059 50.2376 26.2109C50.6868 27.7181 53.5189 27.8809 53.5189 26.0286C53.5189 24.9675 52.0117 24.5801 51.1946 24.2741C49.4433 23.623 47.9752 22.8678 47.9752 20.7096ZM51.8261 60.166H56.8001C57.3307 60.166 57.7571 60.612 57.7571 61.1621V65.1172C57.7571 66.237 56.901 67.1354 55.8626 67.1354H52.7636C51.7448 67.1354 50.8886 66.237 50.8886 65.1172V61.1621C50.8886 60.612 51.3183 60.166 51.8261 60.166ZM22.6009 60.166H27.5748C28.1054 60.166 28.5123 60.612 28.5123 61.1621V65.1172C28.5123 66.237 27.6758 67.1354 26.6373 67.1354H23.5384C22.5 67.1354 21.6634 66.237 21.6634 65.1172V61.1621C21.6634 60.612 22.0931 60.166 22.6009 60.166ZM25.3743 47.2233C27.2689 47.2233 28.7988 48.7533 28.7988 50.6283C28.7988 52.5228 27.2689 54.0495 25.3743 54.0495C23.4798 54.0495 21.9498 52.5228 21.9498 50.6283C21.9498 48.7533 23.4798 47.2233 25.3743 47.2233ZM54.0299 47.2233C55.9245 47.2233 57.4511 48.7533 57.4511 50.6283C57.4511 52.5228 55.9245 54.0495 54.0299 54.0495C52.1549 54.0495 50.625 52.5228 50.625 50.6283C50.625 48.7533 52.1549 47.2233 54.0299 47.2233Z" fill="#9F57C0"/>
</g>
</g>
<defs>
<clipPath id="clip0_211_2288">
<rect width="80" height="80" fill="white"/>
</clipPath>
</defs>
</svg>
