<svg width="80" height="80" viewBox="0 0 80 80" fill="none" xmlns="http://www.w3.org/2000/svg">
<g clip-path="url(#clip0_206_1993)">
<mask id="mask0_206_1993" style="mask-type:luminance" maskUnits="userSpaceOnUse" x="0" y="0" width="80" height="80">
<path d="M40 0C17.9102 0 0 17.9102 0 40C0 62.0898 17.9102 80 40 80C62.0898 80 80 62.0898 80 40C80 17.9102 62.0898 0 40 0Z" fill="white"/>
</mask>
<g mask="url(#mask0_206_1993)">
<path d="M88 -8H-8V88H88V-8Z" fill="white"/>
<path d="M40 0C17.9102 0 0 17.9102 0 40C0 62.0898 17.9102 80 40 80C62.0898 80 80 62.0898 80 40C80 17.9102 62.0898 0 40 0Z" stroke="#9F57C0" stroke-width="4"/>
</g>
<mask id="mask1_206_1993" style="mask-type:luminance" maskUnits="userSpaceOnUse" x="17" y="12" width="46" height="56">
<path d="M17.7441 12.858H62.1191V67.233H17.7441V12.858Z" fill="white"/>
</mask>
<g mask="url(#mask1_206_1993)">
<path fill-rule="evenodd" clip-rule="evenodd" d="M33.4635 37.1874C33.0859 36.8684 33.0404 36.302 33.3594 35.9211C33.6784 35.5435 34.2448 35.498 34.6257 35.817L38.9225 39.453C38.9714 39.4954 39.043 39.4921 39.0853 39.4433L45.9798 32.1028C46.3184 31.7415 46.888 31.7252 47.2494 32.0637C47.6107 32.4055 47.627 32.9719 47.2884 33.3333L39.7428 41.3671C39.4173 41.7252 38.8704 41.761 38.4994 41.4485L33.4635 37.1874ZM50.8366 38.7922V26.2694C50.8366 26.2076 50.7845 26.1523 50.7227 26.149C46.8099 25.9244 43.1706 24.414 40.1725 21.9368C40.127 21.8977 40.0651 21.8977 40.0195 21.9368C37.0215 24.414 33.3789 25.9244 29.4661 26.149C29.4043 26.1523 29.3555 26.2076 29.3555 26.2694V38.7922C29.3555 41.2043 30.3027 43.3625 32.207 44.8144L38.9128 49.925C39.6452 50.4817 40.5436 50.4817 41.276 49.925L47.985 44.8144C49.8861 43.3625 50.8366 41.2043 50.8366 38.7922ZM48.9616 53.9941C50.0423 54.6191 51.3509 54.1861 51.9141 53.2096H51.9173C52.0964 52.8971 52.1908 52.5292 52.1908 52.1256V50.9537C52.1908 48.776 53.9648 47.0019 56.1458 47.0019H57.3177C58.1217 47.0019 58.7826 46.621 59.1862 45.9244C59.5801 45.2375 59.5801 44.4563 59.1862 43.7727L58.597 42.7538H58.6003C57.5065 40.8821 58.1576 38.4472 60.0423 37.3567L61.0579 36.7708C61.4063 36.5722 61.6764 36.302 61.8587 35.9862C62.2266 35.3482 62.2298 34.4628 61.8587 33.8215C61.6764 33.5058 61.4063 33.2389 61.0579 33.037L60.0423 32.4511V32.4478C58.151 31.3541 57.5098 28.9355 58.597 27.054L59.1829 26.0383H59.1862C59.8079 24.9576 59.3783 23.649 58.3984 23.0826H58.4017C58.0892 22.9036 57.7214 22.8092 57.3177 22.8092H56.1458C53.9648 22.8092 52.1908 21.0318 52.1908 18.8541V17.6822C52.1908 16.8782 51.8132 16.2174 51.1133 15.8137H51.1165C50.4297 15.4166 49.6452 15.4166 48.9616 15.8137L47.946 16.3997C46.0775 17.4934 43.6426 16.8489 42.5488 14.9543L41.9629 13.942C41.5592 13.2421 40.905 12.8645 40.0944 12.8645C39.2904 12.8645 38.6296 13.2421 38.2292 13.9355L37.64 14.9543C36.5462 16.8489 34.1244 17.4902 32.2428 16.4029L31.2272 15.8137H31.2305C29.8112 14.9967 27.9981 15.9862 27.9981 17.6822V18.8541C27.9981 21.0318 26.224 22.8092 24.0462 22.8092H22.8711C22.4707 22.8092 22.1029 22.9036 21.7904 23.0826C20.7975 23.662 20.3841 24.9641 21.0059 26.0383L21.5918 27.054C22.6856 28.9257 22.0345 31.3606 20.1465 32.4511L19.1309 33.037C18.7858 33.2389 18.5124 33.5058 18.3301 33.8215C17.7669 34.8013 18.0794 36.1848 19.0853 36.748C19.0885 36.748 19.0885 36.748 19.0885 36.748L20.1465 37.3567V37.3599C22.0345 38.4504 22.6823 40.8658 21.5918 42.7506L21.0059 43.7662C20.6087 44.453 20.6087 45.2375 21.0059 45.9244H21.0026C21.4095 46.621 22.0638 47.0019 22.8711 47.0019H24.0462C26.224 47.0019 27.9981 48.776 27.9981 50.9537V52.1256C27.9981 53.828 29.8177 54.8111 31.2305 53.9941L32.2461 53.4081C34.1374 52.3176 36.5495 52.9654 37.64 54.8534L38.2292 55.8691C38.4277 56.2141 38.6979 56.4843 39.0137 56.6666L39.0104 56.6698C39.6484 57.0377 40.5371 57.0377 41.1784 56.6666C41.4941 56.4843 41.7611 56.2141 41.9629 55.8691L42.5488 54.8534C43.6426 52.9589 46.0645 52.3176 47.946 53.4081L48.9616 53.9941ZM42.1289 58.3528C42.1061 58.3267 42.0996 58.2909 42.1061 58.2551C42.1126 58.2193 42.1322 58.1933 42.1615 58.1737C42.6921 57.8612 43.1934 57.3241 43.5156 56.7675L44.1016 55.7486C44.6875 54.733 46.0156 54.3782 47.0085 54.9381L48.0632 55.5468C49.2057 56.2076 50.5143 56.2694 51.696 55.7128C51.7448 55.69 51.8034 55.703 51.8392 55.7486L56.3314 61.315C56.3607 61.3541 56.3672 61.4062 56.3444 61.4485C56.3184 61.4908 56.2728 61.5168 56.224 61.5103L50.9408 60.9439C50.4492 60.8918 50.0065 61.2499 49.9544 61.7415L49.388 67.0247C49.3815 67.0735 49.349 67.1125 49.3034 67.1256C49.2546 67.1418 49.2057 67.1256 49.1764 67.0865L42.1289 58.3528ZM38.112 58.2226L38.1152 58.2193L38.151 58.2421L31.0156 67.0865C30.9831 67.1256 30.9342 67.1418 30.8887 67.1256C30.8398 67.1125 30.8073 67.0735 30.8008 67.0247L30.2376 61.7415C30.1856 61.2499 29.7428 60.8918 29.2481 60.9439L23.9648 61.5103C23.916 61.5168 23.8704 61.4908 23.8477 61.4485C23.8249 61.4062 23.8281 61.3541 23.8607 61.315L28.3496 55.7486C28.3854 55.703 28.444 55.69 28.4928 55.7161C29.03 55.9667 29.5898 56.0904 30.1497 56.0904C32.3958 56.0904 33.0143 54.2773 34.7787 54.7493C36.5397 55.2213 36.1621 57.0963 38.112 58.2226Z" fill="#9F57C0"/>
</g>
</g>
<defs>
<clipPath id="clip0_206_1993">
<rect width="80" height="80" fill="white"/>
</clipPath>
</defs>
</svg>
