<svg width="80" height="80" viewBox="0 0 80 80" fill="none" xmlns="http://www.w3.org/2000/svg">
<g clip-path="url(#clip0_148_1338)">
<mask id="mask0_148_1338" style="mask-type:luminance" maskUnits="userSpaceOnUse" x="0" y="0" width="80" height="80">
<path d="M40 0C17.9102 0 0 17.9102 0 40C0 62.0898 17.9102 80 40 80C62.0898 80 80 62.0898 80 40C80 17.9102 62.0898 0 40 0Z" fill="white"/>
</mask>
<g mask="url(#mask0_148_1338)">
<path d="M88 -8H-8V88H88V-8Z" fill="white"/>
<path d="M40 0C17.9102 0 0 17.9102 0 40C0 62.0898 17.9102 80 40 80C62.0898 80 80 62.0898 80 40C80 17.9102 62.0898 0 40 0Z" stroke="#9F57C0" stroke-width="4"/>
</g>
<path d="M59.5866 28.125C59.5866 28.3757 59.5605 28.6231 59.5117 28.8705C59.4629 29.1146 59.3913 29.3555 59.2969 29.5866C59.1992 29.8177 59.082 30.0358 58.9421 30.2442C58.8021 30.4525 58.6458 30.6478 58.4668 30.8236C58.291 30.9994 58.099 31.1589 57.8906 31.2989C57.6823 31.4388 57.4609 31.556 57.2298 31.6504C56.9987 31.7481 56.7611 31.8197 56.5137 31.8685C56.2695 31.9174 56.0189 31.9401 55.7682 31.9401C55.5176 31.9401 55.2702 31.9174 55.026 31.8685C54.7786 31.8197 54.541 31.7481 54.3099 31.6504C54.0788 31.556 53.8574 31.4388 53.6491 31.2989C53.4408 31.1589 53.2487 30.9994 53.0697 30.8236C52.8939 30.6478 52.7344 30.4525 52.5977 30.2442C52.4577 30.0358 52.3405 29.8177 52.2428 29.5866C52.1484 29.3555 52.0768 29.1146 52.028 28.8705C51.9792 28.6231 51.9531 28.3757 51.9531 28.125C51.9531 27.8744 51.9792 27.627 52.028 27.3796C52.0768 27.1355 52.1484 26.8978 52.2428 26.6635C52.3405 26.4323 52.4577 26.2142 52.5977 26.0059C52.7344 25.7976 52.8939 25.6023 53.0697 25.4265C53.2487 25.2507 53.4408 25.0912 53.6491 24.9512C53.8574 24.8112 54.0788 24.6941 54.3099 24.5997C54.541 24.502 54.7786 24.4304 55.026 24.3816C55.2702 24.3327 55.5176 24.3099 55.7682 24.3099C56.0189 24.3099 56.2695 24.3327 56.5137 24.3816C56.7611 24.4304 56.9987 24.502 57.2298 24.5997C57.4609 24.6941 57.6823 24.8112 57.8906 24.9512C58.099 25.0912 58.291 25.2507 58.4668 25.4265C58.6458 25.6023 58.8021 25.7976 58.9421 26.0059C59.082 26.2142 59.1992 26.4323 59.2969 26.6635C59.3913 26.8978 59.4629 27.1355 59.5117 27.3796C59.5605 27.627 59.5866 27.8744 59.5866 28.125Z" fill="#9F57C0"/>
<path d="M39.9087 51.0221C39.9087 51.7871 40.4198 52.3796 41.0968 52.3796C41.7772 52.3796 42.285 51.7871 42.285 51.0221C42.285 50.2604 41.7772 49.668 41.0968 49.668C40.4198 49.668 39.9087 50.2604 39.9087 51.0221Z" fill="#9F57C0"/>
<path d="M38.2975 51.4486C37.7897 51.4486 37.4512 51.8718 37.4512 52.4642C37.4512 52.9753 37.8743 53.3985 38.2975 53.3985C38.724 53.3985 39.1471 52.9753 39.1471 52.4642C39.1471 51.8718 38.724 51.4486 38.2975 51.4486Z" fill="#9F57C0"/>
<path d="M18.4536 51.0221C18.4536 50.2604 17.9458 49.668 17.2655 49.668C16.5884 49.668 16.0806 50.2604 16.0806 51.0221C16.0806 51.7871 16.5884 52.3796 17.2655 52.3796C17.9458 52.3796 18.4536 51.7871 18.4536 51.0221Z" fill="#9F57C0"/>
<path d="M20.0651 53.3985C20.5729 53.3985 20.9147 52.9753 20.9147 52.4642C20.9147 51.9564 20.4883 51.4486 20.0651 51.4486C19.6419 51.4486 19.2188 51.8718 19.2188 52.4642C19.2188 52.9753 19.6419 53.3985 20.0651 53.3985Z" fill="#9F57C0"/>
<path d="M25.2376 41.2695C25.153 40.931 24.9837 40.7617 24.6452 40.7617H21.5918C21.3379 40.7617 21.084 41.0156 20.9993 41.2695L20.4883 44.2383H25.7487L25.2376 41.2695Z" fill="#9F57C0"/>
<path d="M37.7049 41.2695C37.6203 40.931 37.451 40.7617 37.1125 40.7617H34.0591C33.8052 40.7617 33.548 41.0156 33.4634 41.2695L32.9556 44.2383H38.2127L37.7049 41.2695Z" fill="#9F57C0"/>
<path d="M42.5393 43.3919V45.0878H41.8622C41.6083 44.2382 41.3511 43.4765 41.0126 42.6269C40.2509 41.0156 39.232 38.8118 38.2131 37.6236C37.9592 37.3697 37.7053 37.2005 37.3668 37.2005C36.5172 37.0312 34.398 36.774 32.3635 36.774C32.3635 36.774 21.8459 36.0969 20.4885 37.539C20.4885 37.539 18.6233 39.3196 16.9273 43.9843C16.758 44.3229 16.6734 44.6614 16.5888 45.0878H15.9931V43.3919C15.9931 43.3919 14.2971 42.9654 13.1968 44.069L13.1122 44.1536C13.1122 44.1536 12.6011 44.5768 12.9429 45.1725C12.9429 45.2571 13.0276 45.3417 13.1122 45.4264C13.1122 45.4264 14.5543 46.2727 16.3349 46.1881L16.081 47.2916C16.081 47.2916 13.62 50.1757 13.7047 51.3639V64.0006C13.7047 64.4238 14.0432 64.8469 14.4696 64.8469H17.0966C17.5198 64.8469 17.8616 64.5084 17.8616 64.0006V61.7089C22.0152 62.1321 33.1252 63.2356 39.8245 61.6243C39.8245 61.6243 40.0816 61.6243 40.5048 61.6243V64.0006C40.5048 64.4238 40.8433 64.8469 41.2665 64.8469H43.8967C44.3199 64.8469 44.6584 64.5084 44.6584 64.0006V51.7871C44.6584 51.7871 45.0849 50.0065 42.4547 47.3762C42.37 47.0377 42.37 46.6992 42.2854 46.3574C44.066 46.4453 45.508 45.5956 45.508 45.5956C46.1851 44.8339 45.508 44.2382 45.508 44.2382C44.3199 42.9654 42.5393 43.3919 42.5393 43.3919ZM17.7769 44.4075C17.7769 44.4075 19.1311 40.4231 20.2346 38.8118C20.4039 38.6425 20.5732 38.4733 20.8303 38.4733C22.7802 38.3854 33.4638 38.0468 37.9592 38.4733C37.9592 38.4733 40.928 42.6269 40.5894 44.8339C40.5894 44.8339 40.5048 45.2571 39.3166 45.2571H18.5386C18.5386 45.2571 17.5198 45.0878 17.7769 44.4075ZM14.9774 51.2792C14.9774 51.2792 14.9774 48.649 17.2659 49.0722C17.2659 49.0722 19.6422 49.8372 20.7424 51.1067C20.7424 51.1067 22.0152 52.2949 21.1689 53.3984C21.0842 53.483 20.9149 53.5677 20.8303 53.6523C20.3192 53.8216 19.219 53.8216 17.6077 53.5677C17.6077 53.5677 15.1467 53.0598 14.9774 51.2792ZM37.4514 60.2669C37.4514 60.2669 26.9338 60.2669 20.8303 60.2669C20.8303 60.2669 15.4853 60.5208 15.9931 57.0442C24.8147 57.6399 33.7209 57.6399 42.7086 57.0442C42.7086 57.0442 43.4735 59.7591 37.4514 60.2669ZM43.3889 51.2792C43.2196 53.0598 40.7587 53.5677 40.7587 53.5677C39.232 53.9062 38.1285 53.8216 37.7053 53.8216C37.536 53.8216 37.4514 53.7369 37.3668 53.5677C36.5172 52.3795 37.7899 51.2792 37.7899 51.2792C38.8088 50.0065 41.2665 49.2415 41.2665 49.2415C43.3889 48.7337 43.3889 51.2792 43.3889 51.2792Z" fill="#9F57C0"/>
<path d="M19.4727 58.2324C24.3066 58.571 32.9557 58.571 37.8743 58.2324C33.0404 57.8939 24.3913 57.8939 19.4727 58.2324Z" fill="#9F57C0"/>
<path d="M19.4727 58.9095C24.3913 59.2513 33.2943 59.2513 37.8743 58.9095C33.0404 58.6556 24.3913 58.6556 19.4727 58.9095Z" fill="#9F57C0"/>
<path d="M19.4727 59.6744C24.1374 60.013 33.2096 60.013 37.8743 59.6744C33.125 59.3359 24.3066 59.3359 19.4727 59.6744Z" fill="#9F57C0"/>
<mask id="mask1_148_1338" style="mask-type:luminance" maskUnits="userSpaceOnUse" x="40" y="32" width="26" height="36">
<path d="M40 32.5H65.8333V67.2331H40V32.5Z" fill="white"/>
</mask>
<g mask="url(#mask1_148_1338)">
<path d="M61.5366 34.9934C61.3674 34.8242 61.2827 34.7395 61.1134 34.7395C57.4644 32.2819 53.8185 32.1126 50.5112 34.7395C49.7495 35.0781 48.5614 37.4544 45.9312 37.8776C44.8309 38.0468 43.812 37.7929 42.7085 37.0312C42.2007 37.6237 41.4357 37.9622 40.5894 37.9622C40.5894 38.3007 40.7586 38.6425 41.0972 38.8118C44.2352 41.1849 47.5425 40.7617 50.4266 38.2161L51.4455 51.5332C51.4455 51.6178 51.5301 51.7024 51.5301 51.7871L50.6805 65.0162C50.5959 66.1198 51.4455 67.1354 52.6304 67.1354C52.715 67.1354 52.715 67.1354 52.715 67.1354C53.8185 67.1354 54.6681 66.289 54.7528 65.1855L55.5991 51.8717H56.1102L56.7873 65.1855C56.8719 66.289 57.7215 67.1354 58.8218 67.1354H58.9064C60.0099 67.0507 60.9442 66.1198 60.8595 65.0162L60.1792 51.1946L61.1134 38.5579C62.4709 40.7617 63.825 44.7461 60.9442 48.9876C60.5177 49.5833 60.687 50.345 61.2827 50.6836C61.7905 51.1067 62.6401 50.9375 62.9787 50.345C67.3895 44.069 63.9976 37.539 61.5366 34.9934ZM57.2951 34.5703L56.7026 36.6048H54.8374L54.2417 34.5703C55.1759 34.1471 56.1948 34.0625 57.2951 34.5703ZM54.2417 44.6614L54.7528 37.4544H56.7873L57.2951 44.6614L55.7684 46.6145L54.2417 44.6614Z" fill="#9F57C0"/>
</g>
<mask id="mask2_148_1338" style="mask-type:luminance" maskUnits="userSpaceOnUse" x="30" y="12" width="10" height="13">
<path d="M30.8335 12.858H40.0002V24.1666H30.8335V12.858Z" fill="white"/>
</mask>
<g mask="url(#mask2_148_1338)">
<path d="M34.9058 22.6139C35.2476 18.3724 36.9435 14.8112 39.2319 13.1998C34.4826 14.4726 30.9214 18.8802 30.9214 24.056C31.006 22.0182 33.6362 21.0872 34.9058 22.6139Z" fill="#9F57C0"/>
</g>
<mask id="mask3_148_1338" style="mask-type:luminance" maskUnits="userSpaceOnUse" x="45" y="12" width="10" height="13">
<path d="M45 12.858H54.1667V24.1666H45V12.858Z" fill="white"/>
</mask>
<g mask="url(#mask3_148_1338)">
<path d="M49.4924 22.6139C50.8498 21.0025 53.48 21.9335 53.48 24.0559C53.3953 18.8801 49.9188 14.5572 45.1694 13.2844C47.4578 14.8958 49.1538 18.3723 49.4924 22.6139Z" fill="#9F57C0"/>
</g>
<mask id="mask4_148_1338" style="mask-type:luminance" maskUnits="userSpaceOnUse" x="35" y="12" width="7" height="13">
<path d="M35 12.858H41.6667V24.1666H35V12.858Z" fill="white"/>
</mask>
<g mask="url(#mask4_148_1338)">
<path d="M35.4165 23.8834C35.4165 23.968 35.4165 23.968 35.4165 24.0559C35.4165 22.0181 38.0435 21.0025 39.4009 22.6139C39.4855 20.0683 39.8241 14.8958 41.0968 13.0305C37.9588 13.8769 35.5011 18.3723 35.4165 23.8834Z" fill="#9F57C0"/>
</g>
<mask id="mask5_148_1338" style="mask-type:luminance" maskUnits="userSpaceOnUse" x="42" y="12" width="8" height="13">
<path d="M42.5 12.858H49.1667V25H42.5V12.858Z" fill="white"/>
</mask>
<g mask="url(#mask5_148_1338)">
<path d="M48.8996 24.056C48.8996 24.1406 48.8996 24.2252 48.8996 24.3099C48.9842 24.2252 48.9842 24.1406 48.8996 24.056C48.8996 19.8144 47.2036 14.0462 43.2192 12.9459C44.4888 14.8112 44.8306 19.9837 44.9152 22.5293C46.3573 21.0872 48.8996 22.0182 48.8996 24.056Z" fill="#9F57C0"/>
</g>
<mask id="mask6_148_1338" style="mask-type:luminance" maskUnits="userSpaceOnUse" x="37" y="12" width="8" height="26">
<path d="M37.5 12.858H45V37.5H37.5V12.858Z" fill="white"/>
</mask>
<g mask="url(#mask6_148_1338)">
<path d="M41.6927 21.9336C41.6927 26.5983 41.6927 30.2441 41.6927 34.6549C41.6927 35.3352 41.097 35.9277 40.4199 35.9277C39.7396 35.9277 39.1471 35.3352 39.1471 34.6549V34.5703C39.1471 34.2317 38.8932 33.9778 38.5547 33.9778C38.2129 33.9778 37.959 34.2317 37.959 34.5703V34.6549C37.959 35.9277 39.0625 37.0312 40.3353 37.0312C41.6081 37.0312 42.7083 35.9277 42.7083 34.6549C42.7083 30.2441 42.7083 26.5136 42.7083 21.9336C43.5579 22.1875 44.4043 23.0371 44.4043 24.1406C44.4889 17.8645 43.4733 12.858 42.2005 12.858C40.9277 12.858 39.9967 17.8645 39.9967 24.0559C39.9967 22.9524 40.8431 22.0182 41.6927 21.9336Z" fill="#9F57C0"/>
</g>
</g>
<defs>
<clipPath id="clip0_148_1338">
<rect width="80" height="80" fill="white"/>
</clipPath>
</defs>
</svg>
