<svg width="80" height="80" viewBox="0 0 80 80" fill="none" xmlns="http://www.w3.org/2000/svg">
<g clip-path="url(#clip0_211_2247)">
<mask id="mask0_211_2247" style="mask-type:luminance" maskUnits="userSpaceOnUse" x="0" y="0" width="80" height="80">
<path d="M40 0C17.9102 0 0 17.9102 0 40C0 62.0898 17.9102 80 40 80C62.0898 80 80 62.0898 80 40C80 17.9102 62.0898 0 40 0Z" fill="white"/>
</mask>
<g mask="url(#mask0_211_2247)">
<path d="M88 -8H-8V88H88V-8Z" fill="white"/>
<path d="M40 0C17.9102 0 0 17.9102 0 40C0 62.0898 17.9102 80 40 80C62.0898 80 80 62.0898 80 40C80 17.9102 62.0898 0 40 0Z" stroke="#9F57C0" stroke-width="4"/>
</g>
<mask id="mask1_211_2247" style="mask-type:luminance" maskUnits="userSpaceOnUse" x="19" y="12" width="42" height="42">
<path d="M19.1667 12.8582H60.8334V53.3334H19.1667V12.8582Z" fill="white"/>
</mask>
<g mask="url(#mask1_211_2247)">
<path d="M24.8633 47.2755C25.0326 47.1746 25.2116 47.0671 25.4135 46.963C24.5769 44.4695 24.1146 41.8295 24.1146 39.1147V24.349C24.1146 23.877 24.4597 23.4864 24.9252 23.4246C30.0456 22.7507 34.9512 21.1492 39.5085 18.672C39.6452 18.5938 39.7982 18.558 39.9512 18.558C40.1042 18.558 40.2572 18.5938 40.3939 18.672C44.9512 21.1492 49.8568 22.7507 54.9773 23.4246C55.4428 23.4864 55.7878 23.877 55.7878 24.349V39.1147C55.7878 43.6817 54.5052 48.0535 52.2592 51.8132L52.9851 52.2104L57.0443 52.8354C59.222 48.7143 60.446 44.03 60.446 39.1147V19.1212C53.3562 19.1212 46.4063 17.0932 40.3939 13.2683L39.9512 12.9851L39.5085 13.2683C33.4961 17.0932 26.5463 19.1212 19.4564 19.1212V39.1147C19.4564 42.6791 20.101 46.1231 21.2891 49.3197L24.8633 47.2755Z" fill="#9F57C0"/>
</g>
<path d="M39.9512 39.8373L37.5423 42.2462C36.8132 42.9753 35.6348 42.9753 34.9089 42.2462L29.7038 37.0444L32.5 34.2481L36.224 37.9753L47.4023 26.797L50.1986 29.5899L39.9512 39.8373ZM39.9512 20.5437C35.5632 22.8712 30.8691 24.4207 25.9766 25.1563V39.1147C25.9766 41.5984 26.3965 44.017 27.1517 46.2957C28.6426 45.8888 30.8561 45.5893 34.3913 45.5893C39.4694 45.5893 43.2357 46.8979 44.5182 47.5912L50.6217 50.9213C52.7246 47.4317 53.9258 43.366 53.9258 39.1147V25.1563C49.0332 24.4207 44.3392 22.8712 39.9512 20.5437Z" fill="#9F57C0"/>
<mask id="mask2_211_2247" style="mask-type:luminance" maskUnits="userSpaceOnUse" x="19" y="59" width="9" height="9">
<path d="M19.1667 59.1667H27.5V67.2332H19.1667V59.1667Z" fill="white"/>
</mask>
<g mask="url(#mask2_211_2247)">
<path d="M23.1836 59.5605C21.1231 59.5605 19.4564 61.2305 19.4564 63.2878C19.4564 65.3418 21.1231 67.0117 23.1836 67.0117C25.2442 67.0117 26.9108 65.3418 26.9108 63.2878C26.9108 61.2305 25.2442 59.5605 23.1836 59.5605Z" fill="#9F57C0"/>
</g>
<mask id="mask3_211_2247" style="mask-type:luminance" maskUnits="userSpaceOnUse" x="11" y="46" width="58" height="18">
<path d="M11.9108 46.6667H68.1608V63.3334H11.9108V46.6667Z" fill="white"/>
</mask>
<g mask="url(#mask3_211_2247)">
<path d="M35.3223 53.5059V49.3327C39.3067 49.4694 42.0573 50.4883 42.7344 50.8691L48.3334 53.9258C45.0196 53.8704 40.28 53.7565 35.3223 53.5059ZM33.4603 53.4049C29.8894 53.2064 26.2956 52.9395 23.1185 52.5618L26.7774 50.4688C27.2559 50.1693 28.4864 49.4076 33.4603 49.3262V53.4049ZM67.6758 59.8112L66.9369 57.4186C66.9173 57.3698 66.9011 57.3275 66.875 57.2786C66.5007 56.5332 65.6446 56.0482 64.3197 55.8464L52.4707 54.0202C52.4056 54.0072 52.347 53.9909 52.3047 53.9616L43.6296 49.2285C42.7181 48.7337 39.2904 47.4512 34.3913 47.4512C28.0925 47.4512 26.4811 48.457 25.791 48.8965L20.612 51.8587C20.3223 52.0247 20 52.1094 19.6615 52.1094H16.6992C14.7884 52.1094 13.4375 53.4049 13.0013 55.612L12.0606 59.375C11.8848 60.2214 12.1257 61.097 12.7311 61.8359C13.4668 62.7279 14.6322 63.2878 15.7683 63.2878H17.5944C17.5944 60.2051 20.1009 57.6986 23.1836 57.6986C26.2663 57.6986 28.7728 60.2051 28.7728 63.2878H50.1986C50.1986 60.2051 52.7051 57.6986 55.7878 57.6986C58.8705 57.6986 61.377 60.2051 61.377 63.2878H65.4362C66.2956 63.2878 67.0801 62.8516 67.5261 62.1224C67.9623 61.4128 68.0176 60.5566 67.6758 59.8112Z" fill="#9F57C0"/>
</g>
<mask id="mask4_211_2247" style="mask-type:luminance" maskUnits="userSpaceOnUse" x="51" y="59" width="9" height="9">
<path d="M51.6667 59.1667H60V67.2332H51.6667V59.1667Z" fill="white"/>
</mask>
<g mask="url(#mask4_211_2247)">
<path d="M55.7878 59.5605C53.7272 59.5605 52.0605 61.2305 52.0605 63.2878C52.0605 65.3418 53.7272 67.0117 55.7878 67.0117C57.8483 67.0117 59.515 65.3418 59.515 63.2878C59.515 61.2305 57.8483 59.5605 55.7878 59.5605Z" fill="#9F57C0"/>
</g>
</g>
<defs>
<clipPath id="clip0_211_2247">
<rect width="80" height="80" fill="white"/>
</clipPath>
</defs>
</svg>
