<svg width="80" height="80" viewBox="0 0 80 80" fill="none" xmlns="http://www.w3.org/2000/svg">
<g clip-path="url(#clip0_212_2322)">
<mask id="mask0_212_2322" style="mask-type:luminance" maskUnits="userSpaceOnUse" x="0" y="0" width="80" height="80">
<path d="M40 0C17.9102 0 0 17.9102 0 40C0 62.0898 17.9102 80 40 80C62.0898 80 80 62.0898 80 40C80 17.9102 62.0898 0 40 0Z" fill="white"/>
</mask>
<g mask="url(#mask0_212_2322)">
<path d="M88 -8H-8V88H88V-8Z" fill="white"/>
<path d="M40 0C17.9102 0 0 17.9102 0 40C0 62.0898 17.9102 80 40 80C62.0898 80 80 62.0898 80 40C80 17.9102 62.0898 0 40 0Z" stroke="#9F57C0" stroke-width="4"/>
</g>
<mask id="mask1_212_2322" style="mask-type:luminance" maskUnits="userSpaceOnUse" x="24" y="12" width="32" height="56">
<path d="M24.7331 12.8579H55.8334V67.2329H24.7331V12.8579Z" fill="white"/>
</mask>
<g mask="url(#mask1_212_2322)">
<path fill-rule="evenodd" clip-rule="evenodd" d="M26.4291 21.6436H53.7142V29.5602H55.4102V19.5179C55.4102 17.6885 54.6615 16.0283 53.4603 14.8239C52.2559 13.6195 50.5925 12.874 48.7663 12.874H31.377C29.5508 12.874 27.8874 13.6195 26.683 14.8239C25.4818 16.0283 24.7331 17.6885 24.7331 19.5179V60.6702C24.7331 62.4443 25.459 64.0589 26.6276 65.2275C27.7962 66.3962 29.4108 67.1221 31.1849 67.1221H48.9584C50.7324 67.1221 52.347 66.3962 53.5156 65.2275C54.6843 64.0589 55.4102 62.4443 55.4102 60.6702V50.4261C54.8828 50.68 54.2709 50.6963 53.737 50.4391L53.7142 50.4294V53.8343H26.4291V21.6436ZM40.1107 56.1227C42.2852 56.1227 44.0495 57.8936 44.0495 60.0615C44.0495 62.236 42.2819 64.0036 40.1107 64.0036C37.9395 64.0036 36.1719 62.2327 36.1719 60.0615C36.1719 57.8903 37.9395 56.1227 40.1107 56.1227ZM35.3613 17.8447C35.3613 17.376 35.7422 16.9951 36.211 16.9951H43.9388C44.4076 16.9951 44.7852 17.376 44.7852 17.8447C44.7852 18.3135 44.4076 18.6911 43.9388 18.6911H36.211C35.7422 18.6911 35.3613 18.3135 35.3613 17.8447Z" fill="#9F57C0"/>
</g>
<path fill-rule="evenodd" clip-rule="evenodd" d="M40.1107 57.1841C38.5254 57.1841 37.2331 58.4764 37.2331 60.0617C37.2331 61.6502 38.5254 62.9425 40.1107 62.9425C41.6992 62.9425 42.9916 61.6502 42.9916 60.0617C42.9916 58.4764 41.6992 57.1841 40.1107 57.1841Z" fill="#9F57C0"/>
<mask id="mask2_212_2322" style="mask-type:luminance" maskUnits="userSpaceOnUse" x="46" y="30" width="17" height="20">
<path d="M46.6667 30H62.2331V50H46.6667V30Z" fill="white"/>
</mask>
<g mask="url(#mask2_212_2322)">
<path d="M55 49.45C54.7624 49.59 54.4629 49.6128 54.196 49.4858V49.4826C52.6302 48.7306 51.237 47.8127 50.013 46.7026C48.7988 45.6024 47.7572 44.3198 46.8815 42.8289C46.7904 42.6955 46.735 42.5295 46.735 42.3504V34.3491C46.735 33.8836 47.1159 33.5028 47.5814 33.5028C48.1283 33.5028 48.6198 33.2912 48.9844 32.9461C48.9974 32.9331 49.0104 32.9201 49.0202 32.9071C49.3913 32.5392 49.6192 32.0314 49.6192 31.4683C49.6192 30.9995 49.9968 30.6187 50.4655 30.6187H58.6589C59.1276 30.6187 59.5085 30.9995 59.5085 31.4683C59.5085 32.0314 59.7363 32.5392 60.1042 32.9071C60.472 33.2749 60.9798 33.5028 61.543 33.5028C62.0117 33.5028 62.3893 33.8836 62.3893 34.3491V42.3504C62.3893 42.4969 62.3535 42.6434 62.2754 42.7769H62.2722C60.5241 45.7782 58.1153 47.9364 55 49.45ZM52.3926 39.7202C52.0606 39.3914 51.5267 39.3914 51.1947 39.7202C50.8626 40.0522 50.8626 40.5894 51.1947 40.9214L52.8906 42.6141C53.2194 42.9461 53.7565 42.9461 54.0886 42.6141L54.0951 42.6108L57.9297 38.7729C58.2617 38.4409 58.2617 37.9038 57.9297 37.575C57.6009 37.243 57.0638 37.243 56.7318 37.575L53.4896 40.8172L52.3926 39.7202Z" fill="#9F57C0"/>
</g>
<path d="M31.0059 29.1343C30.5371 29.1343 30.1562 29.5151 30.1562 29.9806C30.1562 30.4494 30.5371 30.8302 31.0059 30.8302H39.3913C39.86 30.8302 40.2409 30.4494 40.2409 29.9806C40.2409 29.5151 39.86 29.1343 39.3913 29.1343H31.0059Z" fill="#9F57C0"/>
<path d="M31.0059 36.4194C30.5371 36.4194 30.1562 36.797 30.1562 37.2658C30.1562 37.7345 30.5371 38.1154 31.0059 38.1154H39.3913C39.86 38.1154 40.2409 37.7345 40.2409 37.2658C40.2409 36.797 39.86 36.4194 39.3913 36.4194H31.0059Z" fill="#9F57C0"/>
<path d="M31.0059 43.7046C30.5371 43.7046 30.1562 44.0822 30.1562 44.5509C30.1562 45.0197 30.5371 45.3973 31.0059 45.3973H39.3913C39.86 45.3973 40.2409 45.0197 40.2409 44.5509C40.2409 44.0822 39.86 43.7046 39.3913 43.7046H31.0059Z" fill="#9F57C0"/>
</g>
<defs>
<clipPath id="clip0_212_2322">
<rect width="80" height="80" fill="white"/>
</clipPath>
</defs>
</svg>
