<svg width="80" height="80" viewBox="0 0 80 80" fill="none" xmlns="http://www.w3.org/2000/svg">
<g clip-path="url(#clip0_206_2018)">
<mask id="mask0_206_2018" style="mask-type:luminance" maskUnits="userSpaceOnUse" x="0" y="0" width="80" height="80">
<path d="M40 0C17.9102 0 0 17.9102 0 40C0 62.0898 17.9102 80 40 80C62.0898 80 80 62.0898 80 40C80 17.9102 62.0898 0 40 0Z" fill="white"/>
</mask>
<g mask="url(#mask0_206_2018)">
<path d="M88 -8H-8V88H88V-8Z" fill="white"/>
<path d="M40 0C17.9102 0 0 17.9102 0 40C0 62.0898 17.9102 80 40 80C62.0898 80 80 62.0898 80 40C80 17.9102 62.0898 0 40 0Z" stroke="#9F57C0" stroke-width="4"/>
</g>
<mask id="mask1_206_2018" style="mask-type:luminance" maskUnits="userSpaceOnUse" x="12" y="12" width="56" height="56">
<path d="M12.6302 12.858H67.5V67.233H12.6302V12.858Z" fill="white"/>
</mask>
<g mask="url(#mask1_206_2018)">
<path fill-rule="evenodd" clip-rule="evenodd" d="M43.2389 62.4869C43.1999 62.9687 43.0664 63.4472 42.8288 63.8899L41.9141 65.6021C42.2461 65.7942 42.5879 65.996 42.9199 66.1783C43.7142 66.6145 44.7201 66.2825 45.153 65.498C45.599 64.6874 45.293 63.6653 44.4889 63.2161C44.0755 62.9817 43.6556 62.7245 43.2389 62.4869ZM31.8652 45.1106C34.3587 47.7831 37.2396 46.6178 39.9805 45.5077C42.4837 44.4954 44.8861 43.5221 47.1745 44.8274L56.084 49.9055C56.403 50.0846 56.6797 50.3092 56.9173 50.5598C56.9629 50.6086 57.0052 50.6575 57.0475 50.7096L58.3724 50.1562L53.8281 38.4342C51.8066 39.5182 50.3385 38.8964 48.3464 38.0826C46.1751 37.1939 43.6328 36.1555 40.1693 38.5318C38.278 39.8241 36.7578 41.6633 34.847 43.0989C33.8997 43.8085 32.9037 44.4791 31.8652 45.1106ZM32.2852 54.2219C31.5592 53.8346 30.7292 53.7141 29.9251 53.8736C29.7819 52.7278 29.0983 51.7187 28.0762 51.1718C26.6797 50.4264 24.9544 50.6998 23.8542 51.8261C23.6361 50.69 23.3301 49.5833 22.0475 49.0885C21.9727 49.0559 21.8425 49.0038 21.6764 48.9322L26.7904 37.3632L27.3796 37.6334C29.1699 38.6262 30.8268 38.2389 32.6302 37.8157C34.2546 37.4348 36.0156 37.0214 38.0111 37.9036C36.556 39.1178 35.2897 40.511 33.7663 41.6568C32.7214 42.4413 31.5755 43.19 30.3451 43.9094C29.7135 44.2773 29.5508 45.1236 29.9967 45.6998C33.4245 50.1106 37.1387 48.6067 40.6576 47.1842C42.7474 46.3378 44.7559 45.524 46.2858 46.3964L55.1921 51.4745C55.9863 51.927 56.3119 52.9329 55.8659 53.7467C55.4069 54.5409 54.4336 54.8697 53.6165 54.4238C51.5755 53.2584 49.515 52.1256 47.474 50.957C47.041 50.7096 46.4876 50.8593 46.2402 51.2955C45.9928 51.7284 46.1426 52.2786 46.5755 52.526C48.6133 53.6946 50.6641 54.8437 52.7148 55.9928C53.5156 56.442 53.8249 57.4543 53.3789 58.2682C52.9492 59.0527 51.9043 59.3814 51.1133 58.929L43.0469 54.3879C42.6107 54.1438 42.0606 54.3001 41.8164 54.733C41.5723 55.1692 41.7253 55.7193 42.1615 55.9635C44.3587 57.2004 46.5495 58.457 48.7435 59.6874C49.554 60.1432 49.8568 61.1555 49.4043 61.9726C48.9551 62.7734 47.9395 63.0663 47.1354 62.6204L42.4447 59.9674C42.1484 59.6028 41.7839 59.3033 41.3704 59.082C40.5078 58.6197 39.502 58.5383 38.5775 58.8443C38.3171 57.9036 37.6921 57.1126 36.8262 56.6536C35.9635 56.1913 34.9609 56.1067 34.0332 56.4159C33.776 55.4719 33.1478 54.6842 32.2852 54.2219ZM36.4063 64.8404C36.276 65.5793 36.6374 66.3346 37.3014 66.6894C38.1478 67.1419 39.2155 66.8196 39.668 65.9732L41.237 63.0403C41.6895 62.1939 41.3574 61.123 40.5176 60.6738C39.8145 60.2994 38.9258 60.4589 38.3919 61.0514L36.4063 64.8404ZM36.8425 60.2213C37.041 59.4498 36.6829 58.623 35.9766 58.2454C35.2734 57.871 34.3848 58.0273 33.8509 58.6197L31.6341 62.8743C31.5234 63.6002 31.8848 64.3294 32.5358 64.6777C33.304 65.0911 34.2741 64.8632 34.7819 64.1568L36.8425 60.2213ZM32.3014 57.7929C32.4967 57.0182 32.1387 56.1946 31.4356 55.817C30.7813 55.4687 29.9675 55.5728 29.4238 56.0741L26.8522 60.677C26.3997 61.5234 26.722 62.5911 27.5684 63.0435C28.4245 63.4993 29.4824 63.1672 29.9414 62.3144L32.3014 57.7929ZM27.9883 55.0325C28.3691 54.1991 28.0306 53.1965 27.2233 52.7636C26.377 52.3144 25.3125 52.6334 24.86 53.4797L23.2227 56.5396C22.7702 57.386 23.0925 58.4537 23.9388 58.9062C24.5898 59.2512 25.3971 59.1471 25.9408 58.6555L27.9883 55.0325ZM40.0065 12.8645L51.8978 17.9622V27.5748C51.8978 30.9537 50.7389 33.9648 48.7793 36.315C48.0501 36.0188 47.2819 35.7161 46.4616 35.5077C46.6634 35.3027 46.8522 35.0911 47.0378 34.8697C48.6686 32.9101 49.6354 30.4068 49.6354 27.5748V20.0487C49.6354 19.6516 49.3815 19.3163 49.0267 19.1926L40.3581 15.4784C40.1237 15.3808 39.8698 15.3873 39.6517 15.4784L30.9277 19.2187C30.5827 19.3652 30.3776 19.6972 30.3776 20.0487L30.3744 27.5748C30.3744 30.4068 31.3412 32.9101 32.9753 34.8697C33.2227 35.1692 33.4863 35.4524 33.763 35.7258C33.2357 35.817 32.7246 35.9374 32.2201 36.0546C31.875 36.136 31.5365 36.2174 31.2044 36.2825C29.2611 33.9355 28.1152 30.9407 28.1152 27.5748V17.9622L40.0065 12.8645ZM40.0065 17.2916L32.1842 20.6445V27.5748C32.1842 29.9706 32.9915 32.0767 34.3587 33.7174C34.9609 34.4368 35.6673 35.0715 36.4648 35.5989C37.4577 35.7161 38.5124 36.0383 39.6484 36.7154C41.2891 35.69 42.7441 35.2831 44.0625 35.2343C44.6517 34.7851 45.1823 34.2773 45.651 33.7174C47.0182 32.0767 47.8255 29.9706 47.8255 27.5748V20.6445L40.0065 17.2916ZM45.5371 25.1659C43.6068 27.1158 41.6895 29.0787 39.7494 31.0155C39.1829 31.5852 38.2617 31.5852 37.6953 31.0155L34.4792 27.7994C33.9128 27.233 33.9128 26.3118 34.4792 25.7454C35.0456 25.179 35.9635 25.179 36.5332 25.7454L38.7207 27.9329L43.4798 23.1249C44.043 22.5553 44.9642 22.5553 45.5306 23.1184C46.097 23.6816 46.1003 24.5995 45.5371 25.1659ZM67.0443 49.2382L60.5599 32.5195C60.2474 31.7089 59.3294 31.3053 58.5221 31.6178L55.3027 32.8645C54.4922 33.1803 54.0885 34.0982 54.401 34.9055L60.8854 51.6275C61.1979 52.4348 62.1159 52.8417 62.9232 52.5292L66.1426 51.2792C66.9531 50.9667 67.3568 50.0488 67.0443 49.2382ZM58.0892 36.3508C57.4967 36.3508 57.015 35.8723 57.015 35.2799C57.015 34.6874 57.4967 34.2057 58.0892 34.2057C58.6816 34.2057 59.1602 34.6874 59.1602 35.2799C59.1602 35.8723 58.6816 36.3508 58.0892 36.3508ZM25.4818 31.9433L22.3242 30.5501C21.53 30.1985 20.5957 30.5598 20.2441 31.3541L12.9948 47.7571C12.6432 48.5514 13.0078 49.4856 13.7988 49.8372L16.9564 51.2336C17.7507 51.582 18.6849 51.2206 19.0365 50.4264L26.2858 34.0234C26.6374 33.2291 26.276 32.2948 25.4818 31.9433ZM22.5358 35.2961C21.9466 35.2701 21.4876 34.7688 21.5169 34.1764C21.543 33.5839 22.0443 33.1249 22.6367 33.1542C23.2292 33.1803 23.6849 33.6848 23.6589 34.274C23.6296 34.8665 23.1283 35.3254 22.5358 35.2961Z" fill="#9F57C0"/>
</g>
</g>
<defs>
<clipPath id="clip0_206_2018">
<rect width="80" height="80" fill="white"/>
</clipPath>
</defs>
</svg>
