<svg width="341" height="341" viewBox="0 0 341 341" fill="none" xmlns="http://www.w3.org/2000/svg">
<path d="M199.197 114.94V100.512L235.535 86.6709L271.867 100.512V114.94C271.867 139.348 257.434 161.205 235.535 170.559C213.631 161.205 199.197 139.348 199.197 114.94Z" fill="#E1E4E6"/>
<mask id="mask0_155_680" style="mask-type:luminance" maskUnits="userSpaceOnUse" x="186" y="74" width="100" height="110">
<path d="M186.504 74.1318H285.015V183.382H186.504V74.1318Z" fill="white"/>
</mask>
<g mask="url(#mask0_155_680)">
<path fill-rule="evenodd" clip-rule="evenodd" d="M187.084 92.3007L235.534 74.1318L283.979 92.3007V113.228C283.979 144.357 264.673 172.217 235.534 183.145C206.39 172.217 187.084 144.357 187.084 113.228V92.3007ZM193.14 96.3383L235.534 80.1881L277.923 96.3383V114.939C277.923 142.61 261.032 167.374 235.534 177.089C210.03 167.374 193.14 142.61 193.14 114.939V96.3383Z" fill="#E1E4E6"/>
</g>
<path d="M199.197 114.94V100.512L235.535 86.6709L271.867 100.512V114.94C271.867 139.348 257.434 161.205 235.535 170.559C213.631 161.205 199.197 139.348 199.197 114.94Z" fill="#E1E4E6"/>
<mask id="mask1_155_680" style="mask-type:luminance" maskUnits="userSpaceOnUse" x="186" y="74" width="100" height="110">
<path d="M186.504 74.1318H285.015V183.382H186.504V74.1318Z" fill="white"/>
</mask>
<g mask="url(#mask1_155_680)">
<path fill-rule="evenodd" clip-rule="evenodd" d="M187.084 92.3007L235.534 74.1318L283.979 92.3007V113.228C283.979 144.357 264.673 172.217 235.534 183.145C206.39 172.217 187.084 144.357 187.084 113.228V92.3007ZM193.14 96.3383L235.534 80.1881L277.923 96.3383V114.939C277.923 142.61 261.032 167.374 235.534 177.089C210.03 167.374 193.14 142.61 193.14 114.939V96.3383Z" fill="#E1E4E6"/>
</g>
<path fill-rule="evenodd" clip-rule="evenodd" d="M78.071 164.977C74.7261 164.977 72.0146 167.688 72.0146 171.033V183.145C72.0146 186.49 74.7261 189.202 78.071 189.202H126.521C129.866 189.202 132.578 186.49 132.578 183.145V171.033C132.578 167.688 129.866 164.977 126.521 164.977H78.071ZM126.521 171.033H78.071V183.145H126.521V171.033Z" fill="#545454"/>
<path fill-rule="evenodd" clip-rule="evenodd" d="M72.0146 213.421C72.0146 210.076 74.7261 207.365 78.071 207.365H126.521C129.866 207.365 132.578 210.076 132.578 213.421V225.534C132.578 228.879 129.866 231.59 126.521 231.59H78.071C74.7261 231.59 72.0146 228.879 72.0146 225.534V213.421ZM78.071 213.421H126.521V225.534H78.071V213.421Z" fill="#545454"/>
<path fill-rule="evenodd" clip-rule="evenodd" d="M72.0146 255.815C72.0146 252.47 74.7261 249.759 78.071 249.759H126.521C129.866 249.759 132.578 252.47 132.578 255.815V267.928C132.578 271.273 129.866 273.984 126.521 273.984H78.071C74.7261 273.984 72.0146 271.273 72.0146 267.928V255.815ZM78.071 255.815H126.521V267.928H78.071V255.815Z" fill="#545454"/>
<path d="M174.972 292.153C178.317 292.153 181.029 289.442 181.029 286.097C181.029 282.752 178.317 280.041 174.972 280.041C171.627 280.041 168.916 282.752 168.916 286.097C168.916 289.442 171.627 292.153 174.972 292.153Z" fill="#9F57C0"/>
<path d="M235.535 292.153C238.88 292.153 241.591 289.442 241.591 286.097C241.591 282.752 238.88 280.041 235.535 280.041C232.19 280.041 229.479 282.752 229.479 286.097C229.479 289.442 232.19 292.153 235.535 292.153Z" fill="#9F57C0"/>
<mask id="mask2_155_680" style="mask-type:luminance" maskUnits="userSpaceOnUse" x="47" y="95" width="243" height="222">
<path d="M47.7891 95.48H289.769V316.112H47.7891V95.48Z" fill="white"/>
</mask>
<g mask="url(#mask2_155_680)">
<path fill-rule="evenodd" clip-rule="evenodd" d="M53.8454 140.751V310.322H50.8202C49.1448 310.322 47.7891 311.678 47.7891 313.353C47.7891 315.023 49.1448 316.378 50.8202 316.378H287.01C288.68 316.378 290.035 315.023 290.035 313.353C290.035 311.678 288.68 310.322 287.01 310.322H283.979V189.202C283.979 182.512 278.556 177.089 271.866 177.089H256.729C255.053 177.089 253.697 178.445 253.697 180.114C253.697 181.79 255.053 183.145 256.729 183.145H271.866C275.211 183.145 277.923 185.857 277.923 189.202V310.322H265.81V213.421C265.81 210.076 263.099 207.365 259.754 207.365H150.746V183.145H214.334C216.01 183.145 217.366 181.79 217.366 180.114C217.366 178.445 216.01 177.089 214.334 177.089H150.746V102.105C150.746 97.5995 146.01 94.669 141.978 96.6878L53.8454 140.751ZM59.9017 144.493V310.322H144.69V102.105L59.9017 144.493ZM241.07 310.322H259.754V213.421H150.746V310.322H169.43C169.099 309.375 168.915 308.356 168.915 307.297V304.266C162.225 304.266 156.803 298.843 156.803 292.153V280.04C156.803 274.866 160.047 270.45 164.617 268.715L172.207 245.929C173.858 240.985 178.488 237.646 183.698 237.646H226.802C232.018 237.646 236.641 240.985 238.293 245.929L245.889 268.715C250.453 270.45 253.697 274.866 253.697 280.04V292.153C253.697 298.843 248.275 304.266 241.591 304.266V307.297C241.591 308.356 241.407 309.375 241.07 310.322ZM186.563 310.322C186.9 309.375 187.084 308.356 187.084 307.297V304.266H223.422V307.297C223.422 308.356 223.599 309.375 223.937 310.322H186.563ZM177.997 310.322C179.672 310.322 181.028 308.966 181.028 307.297V304.266H174.971V307.297C174.971 308.966 176.327 310.322 177.997 310.322ZM232.503 310.322C230.834 310.322 229.478 308.966 229.478 307.297V304.266H235.534V307.297C235.534 308.966 234.179 310.322 232.503 310.322ZM226.802 243.703H183.698C181.093 243.703 178.778 245.372 177.955 247.847L171.259 267.928H239.24L232.545 247.847C231.722 245.372 229.407 243.703 226.802 243.703ZM247.641 292.153C247.641 295.498 244.936 298.209 241.591 298.209H168.915C165.57 298.209 162.859 295.498 162.859 292.153V280.04C162.859 276.696 165.57 273.984 168.915 273.984H241.591C244.936 273.984 247.641 276.696 247.641 280.04V292.153Z" fill="#AAAAAA"/>
</g>
<path d="M15.46 317.663H322.384" stroke="#AAAAAA" stroke-width="3.99787"/>
<mask id="mask3_155_680" style="mask-type:luminance" maskUnits="userSpaceOnUse" x="69" y="165" width="68" height="28">
<path d="M69.0137 165.142H136.255V192.464H69.0137V165.142Z" fill="white"/>
</mask>
<g mask="url(#mask3_155_680)">
<mask id="mask4_155_680" style="mask-type:luminance" maskUnits="userSpaceOnUse" x="69" y="165" width="68" height="28">
<path d="M71.287 165.142H133.898C134.502 165.142 135.082 165.379 135.509 165.805C135.935 166.231 136.172 166.812 136.172 167.41V190.19C136.172 190.794 135.935 191.374 135.509 191.8C135.082 192.227 134.502 192.464 133.898 192.464H71.287C70.6832 192.464 70.103 192.227 69.6767 191.8C69.2505 191.374 69.0137 190.794 69.0137 190.19V167.41C69.0137 166.812 69.2505 166.231 69.6767 165.805C70.103 165.379 70.6832 165.142 71.287 165.142Z" fill="white"/>
</mask>
<g mask="url(#mask4_155_680)">
<path d="M69.0137 165.142H136.148V192.464H69.0137V165.142Z" fill="#E1E4E6"/>
</g>
</g>
<mask id="mask5_155_680" style="mask-type:luminance" maskUnits="userSpaceOnUse" x="69" y="165" width="68" height="28">
<path d="M69.0137 165.142H136.041V192.404H69.0137V165.142Z" fill="white"/>
</mask>
<g mask="url(#mask5_155_680)">
<mask id="mask6_155_680" style="mask-type:luminance" maskUnits="userSpaceOnUse" x="69" y="165" width="68" height="28">
<path d="M71.287 165.142H133.887C134.49 165.142 135.071 165.379 135.497 165.805C135.923 166.231 136.16 166.806 136.16 167.41V190.184C136.16 190.788 135.923 191.368 135.497 191.795C135.071 192.221 134.49 192.458 133.887 192.458H71.287C70.6832 192.458 70.1089 192.221 69.6826 191.795C69.2564 191.368 69.0137 190.788 69.0137 190.184V167.41C69.0137 166.806 69.2564 166.231 69.6826 165.805C70.1089 165.379 70.6832 165.142 71.287 165.142Z" fill="white"/>
</mask>
<g mask="url(#mask6_155_680)">
<path d="M71.287 165.142H133.887C134.49 165.142 135.071 165.379 135.497 165.805C135.923 166.231 136.16 166.806 136.16 167.41V190.184C136.16 190.788 135.923 191.368 135.497 191.795C135.071 192.221 134.49 192.458 133.887 192.458H71.287C70.6832 192.458 70.1089 192.221 69.6826 191.795C69.2564 191.368 69.0137 190.788 69.0137 190.184V167.41C69.0137 166.806 69.2564 166.231 69.6826 165.805C70.1089 165.379 70.6832 165.142 71.287 165.142Z" stroke="#4E4D4E" stroke-width="1.99893"/>
</g>
</g>
<mask id="mask7_155_680" style="mask-type:luminance" maskUnits="userSpaceOnUse" x="69" y="206" width="68" height="29">
<path d="M69.0137 206.796H136.255V234.118H69.0137V206.796Z" fill="white"/>
</mask>
<g mask="url(#mask7_155_680)">
<mask id="mask8_155_680" style="mask-type:luminance" maskUnits="userSpaceOnUse" x="69" y="206" width="68" height="29">
<path d="M71.287 206.796H133.898C134.502 206.796 135.082 207.033 135.509 207.459C135.935 207.886 136.172 208.466 136.172 209.07V231.844C136.172 232.448 135.935 233.029 135.509 233.455C135.082 233.881 134.502 234.118 133.898 234.118H71.287C70.6832 234.118 70.103 233.881 69.6767 233.455C69.2505 233.029 69.0137 232.448 69.0137 231.844V209.07C69.0137 208.466 69.2505 207.886 69.6767 207.459C70.103 207.033 70.6832 206.796 71.287 206.796Z" fill="white"/>
</mask>
<g mask="url(#mask8_155_680)">
<path d="M69.0137 206.796H136.148V234.118H69.0137V206.796Z" fill="#E1E4E6"/>
</g>
</g>
<mask id="mask9_155_680" style="mask-type:luminance" maskUnits="userSpaceOnUse" x="69" y="206" width="68" height="29">
<path d="M69.0137 206.796H136.041V234.059H69.0137V206.796Z" fill="white"/>
</mask>
<g mask="url(#mask9_155_680)">
<mask id="mask10_155_680" style="mask-type:luminance" maskUnits="userSpaceOnUse" x="69" y="206" width="68" height="29">
<path d="M71.287 206.796H133.887C134.49 206.796 135.071 207.033 135.497 207.459C135.923 207.886 136.16 208.466 136.16 209.07V231.844C136.16 232.442 135.923 233.023 135.497 233.449C135.071 233.875 134.49 234.112 133.887 234.112H71.287C70.6832 234.112 70.1089 233.875 69.6826 233.449C69.2564 233.023 69.0137 232.442 69.0137 231.844V209.07C69.0137 208.466 69.2564 207.886 69.6826 207.459C70.1089 207.033 70.6832 206.796 71.287 206.796Z" fill="white"/>
</mask>
<g mask="url(#mask10_155_680)">
<path d="M71.287 206.796H133.887C134.49 206.796 135.071 207.033 135.497 207.459C135.923 207.886 136.16 208.466 136.16 209.07V231.844C136.16 232.442 135.923 233.023 135.497 233.449C135.071 233.875 134.49 234.112 133.887 234.112H71.287C70.6832 234.112 70.1089 233.875 69.6826 233.449C69.2564 233.023 69.0137 232.442 69.0137 231.844V209.07C69.0137 208.466 69.2564 207.886 69.6826 207.459C70.1089 207.033 70.6832 206.796 71.287 206.796Z" stroke="#4E4D4E" stroke-width="1.99893"/>
</g>
</g>
<mask id="mask11_155_680" style="mask-type:luminance" maskUnits="userSpaceOnUse" x="69" y="248" width="68" height="29">
<path d="M69.0137 248.889H136.255V276.21H69.0137V248.889Z" fill="white"/>
</mask>
<g mask="url(#mask11_155_680)">
<mask id="mask12_155_680" style="mask-type:luminance" maskUnits="userSpaceOnUse" x="69" y="248" width="68" height="29">
<path d="M71.287 248.889H133.898C134.502 248.889 135.082 249.125 135.509 249.552C135.935 249.978 136.172 250.558 136.172 251.162V273.943C136.172 274.541 135.935 275.121 135.509 275.547C135.082 275.973 134.502 276.21 133.898 276.21H71.287C70.6832 276.21 70.103 275.973 69.6767 275.547C69.2505 275.121 69.0137 274.541 69.0137 273.943V251.162C69.0137 250.558 69.2505 249.978 69.6767 249.552C70.103 249.125 70.6832 248.889 71.287 248.889Z" fill="white"/>
</mask>
<g mask="url(#mask12_155_680)">
<path d="M69.0137 248.889H136.148V276.21H69.0137V248.889Z" fill="#E1E4E6"/>
</g>
</g>
<mask id="mask13_155_680" style="mask-type:luminance" maskUnits="userSpaceOnUse" x="69" y="248" width="68" height="29">
<path d="M69.0137 248.889H136.041V276.151H69.0137V248.889Z" fill="white"/>
</mask>
<g mask="url(#mask13_155_680)">
<mask id="mask14_155_680" style="mask-type:luminance" maskUnits="userSpaceOnUse" x="69" y="248" width="68" height="29">
<path d="M71.287 248.889H133.887C134.49 248.889 135.071 249.125 135.497 249.552C135.923 249.978 136.16 250.558 136.16 251.162V273.937C136.16 274.541 135.923 275.115 135.497 275.541C135.071 275.967 134.49 276.204 133.887 276.204H71.287C70.6832 276.204 70.1089 275.967 69.6826 275.541C69.2564 275.115 69.0137 274.541 69.0137 273.937V251.162C69.0137 250.558 69.2564 249.978 69.6826 249.552C70.1089 249.125 70.6832 248.889 71.287 248.889Z" fill="white"/>
</mask>
<g mask="url(#mask14_155_680)">
<path d="M71.287 248.889H133.887C134.49 248.889 135.071 249.125 135.497 249.552C135.923 249.978 136.16 250.558 136.16 251.162V273.937C136.16 274.541 135.923 275.115 135.497 275.541C135.071 275.967 134.49 276.204 133.887 276.204H71.287C70.6832 276.204 70.1089 275.967 69.6826 275.541C69.2564 275.115 69.0137 274.541 69.0137 273.937V251.162C69.0137 250.558 69.2564 249.978 69.6826 249.552C70.1089 249.125 70.6832 248.889 71.287 248.889Z" stroke="#4E4D4E" stroke-width="1.99893"/>
</g>
</g>
</svg>
